<?xml version="1.0" encoding="UTF-8" standalone="no"?>
<svg width="495px" height="188px" viewBox="0 0 495 188" version="1.1" xmlns="http://www.w3.org/2000/svg" xmlns:xlink="http://www.w3.org/1999/xlink" xmlns:sketch="http://www.bohemiancoding.com/sketch/ns">
    <!-- Generator: Sketch 3.0.1 (7597) - http://www.bohemiancoding.com/sketch -->
    <title>ohanah-logo</title>
    <description>Created with Sketch.</description>
    <defs>
        <path id="path-1" d="M0.06,-0.13 L494.023,-0.13 L494.023,187 L0.06,187"></path>
    </defs>
    <g id="Page-1" stroke="none" stroke-width="1" fill="none" fill-rule="evenodd" sketch:type="MSPage">
        <g id="ohanah-logo" sketch:type="MSLayerGroup" transform="translate(0.000000, 1.000000)">
            <path d="M137.787,117.044 C146.101,117.044 151.297,110.926 151.297,102.385 C151.297,93.839 146.101,87.72 137.787,87.72 C129.475,87.72 124.28,93.839 124.28,102.385 C124.28,110.926 129.475,117.044 137.787,117.044 L137.787,117.044 Z M137.787,74.791 C153.719,74.791 166.421,85.181 166.421,102.385 C166.421,119.587 153.719,129.864 137.787,129.864 C121.854,129.864 109.272,119.587 109.272,102.385 C109.272,85.181 121.854,74.791 137.787,74.791 L137.787,74.791 Z" id="Fill-1" fill="#B81515" sketch:type="MSShapeGroup"></path>
            <path d="M212.822,90.49 C211.434,88.876 209.128,87.835 205.896,87.835 C196.889,87.835 193.541,96.264 193.541,103.883 L193.541,126.975 C193.541,127.9 192.732,128.706 191.81,128.706 L180.035,128.706 C178.996,128.706 178.301,127.9 178.301,126.975 L178.301,63.437 C178.301,62.512 178.996,61.707 180.035,61.707 L191.81,61.707 C192.732,61.707 193.541,62.512 193.541,63.437 L193.541,81.137 C198.045,76.524 203.586,74.791 209.244,74.791 C215.129,74.791 220.674,76.292 224.715,79.986 C228.409,83.334 230.832,88.759 230.832,96.611 L230.832,126.975 C230.832,127.9 230.139,128.706 229.101,128.706 L217.209,128.706 C216.287,128.706 215.475,127.9 215.475,126.975 L215.475,100.535 C215.475,96.727 215.015,92.917 212.822,90.49" id="Fill-2" fill="#B81515" sketch:type="MSShapeGroup"></path>
            <path d="M281.045,113.928 L281.045,104.229 C281.045,98.341 279.773,94.184 277.696,91.648 C275.387,88.992 272.152,88.067 268.803,88.067 C264.763,88.067 261.534,89.915 259.57,92.8 C257.84,95.456 256.799,98.691 256.799,102.731 C256.799,108.041 258.3,111.619 260.377,113.928 C262.802,116.351 265.459,117.39 269.615,117.39 C273.656,117.39 277.464,116.238 281.045,113.928 L281.045,113.928 Z M282.889,125.125 C279.081,128.013 273.885,129.864 267.535,129.864 C261.534,129.864 254.145,128.247 249.063,122.934 C244.676,118.315 241.557,111.504 241.557,102.385 C241.557,94.301 244.1,87.954 248.14,83.217 C252.874,77.793 260.146,74.791 268.803,74.791 C277.118,74.791 285.199,77.562 290.165,83.448 C294.205,88.413 296.398,94.418 296.398,103.654 L296.398,126.975 C296.398,127.9 295.59,128.706 294.665,128.706 L284.852,128.706 C283.93,128.706 283.122,127.9 283.122,126.975 L283.122,125.125 L282.889,125.125 L282.889,125.125 Z" id="Fill-3" fill="#B81515" sketch:type="MSShapeGroup"></path>
            <path d="M324.675,126.975 C324.675,127.9 323.866,128.706 322.943,128.706 L311.168,128.706 C310.243,128.706 309.434,127.9 309.434,126.975 L309.434,98.691 C309.434,91.875 311.051,86.912 314.051,83.101 C318.556,77.443 326.176,74.791 335.641,74.791 C345.11,74.791 352.845,77.443 357.232,83.101 C360.234,86.912 361.966,91.875 361.966,98.691 L361.966,126.975 C361.966,127.9 361.156,128.706 360.118,128.706 L348.343,128.706 C347.42,128.706 346.608,127.9 346.608,126.975 L346.608,99.729 C346.608,96.84 346.149,94.647 345.11,92.57 C343.606,89.798 340.491,87.835 335.641,87.835 C330.792,87.835 327.676,89.798 326.176,92.57 C325.134,94.647 324.675,96.84 324.675,99.729 L324.675,126.975" id="Fill-4" fill="#B81515" sketch:type="MSShapeGroup"></path>
            <path d="M412.177,113.928 L412.177,104.229 C412.177,98.341 410.907,94.184 408.83,91.648 C406.52,88.992 403.285,88.067 399.937,88.067 C395.896,88.067 392.667,89.915 390.704,92.8 C388.972,95.456 387.931,98.691 387.931,102.731 C387.931,108.041 389.432,111.619 391.509,113.928 C393.935,116.351 396.592,117.39 400.749,117.39 C404.789,117.39 408.596,116.238 412.177,113.928 L412.177,113.928 Z M414.022,125.125 C410.215,128.013 405.018,129.864 398.669,129.864 C392.667,129.864 385.278,128.247 380.196,122.934 C375.809,118.315 372.691,111.504 372.691,102.385 C372.691,94.301 375.233,87.954 379.274,83.217 C384.007,77.793 391.279,74.791 399.937,74.791 C408.251,74.791 416.332,77.562 421.298,83.448 C425.339,88.413 427.532,94.418 427.532,103.654 L427.532,126.975 C427.532,127.9 426.723,128.706 425.798,128.706 L415.986,128.706 C415.063,128.706 414.255,127.9 414.255,126.975 L414.255,125.125 L414.022,125.125 L414.022,125.125 Z" id="Fill-5" fill="#B81515" sketch:type="MSShapeGroup"></path>
            <path d="M476.013,90.49 C474.626,88.876 472.319,87.835 469.087,87.835 C460.081,87.835 456.732,96.264 456.732,103.883 L456.732,126.975 C456.732,127.9 455.924,128.706 455.002,128.706 L443.226,128.706 C442.187,128.706 441.492,127.9 441.492,126.975 L441.492,63.437 C441.492,62.512 442.187,61.707 443.226,61.707 L455.002,61.707 C455.924,61.707 456.732,62.512 456.732,63.437 L456.732,81.137 C461.236,76.524 466.777,74.791 472.435,74.791 C478.32,74.791 483.865,76.292 487.906,79.986 C491.6,83.334 494.023,88.759 494.023,96.611 L494.023,126.975 C494.023,127.9 493.331,128.706 492.293,128.706 L480.4,128.706 C479.478,128.706 478.667,127.9 478.667,126.975 L478.667,100.535 C478.667,96.727 478.207,92.917 476.013,90.49" id="Fill-6" fill="#B81515" sketch:type="MSShapeGroup"></path>
            <g id="Group-12">
                <mask id="mask-2" sketch:name="Clip 8" fill="white">
                    <use xlink:href="#path-1"></use>
                </mask>
                <g id="Clip-8"></g>
                <path d="M48.402,86.435 C48.646,87.119 48.541,87.911 48.056,88.521 C47.568,89.129 46.822,89.406 46.098,89.318 L25.194,86.779 C24.527,86.697 23.875,86.438 23.31,85.987 C22.745,85.539 22.351,84.957 22.127,84.324 L4.483,34.836 C4.12,33.814 4.279,32.633 5.006,31.722 C5.731,30.814 6.849,30.4 7.927,30.531 L26.582,32.798 C27.404,32.897 28.208,33.217 28.9,33.771 C29.596,34.327 30.083,35.04 30.361,35.817 L48.402,86.435" id="Fill-7" fill="#B81515" sketch:type="MSShapeGroup" mask="url(#mask-2)"></path>
                <path d="M111.395,6.718 C111.976,5.946 112.138,4.893 111.736,3.943 C111.327,2.987 110.453,2.374 109.494,2.257 L90.114,-0.098 C89.382,-0.186 88.621,-0.095 87.892,0.206 C87.163,0.506 86.558,0.981 86.101,1.559 L43.38,55.892 C42.954,56.437 42.653,57.087 42.534,57.816 C42.415,58.546 42.494,59.257 42.724,59.91 L50.627,82.068 C50.883,82.784 51.512,83.342 52.318,83.465 C53.127,83.587 53.895,83.243 54.355,82.633 L111.395,6.718" id="Fill-9" fill="#B81515" sketch:type="MSShapeGroup" mask="url(#mask-2)"></path>
                <path d="M31.718,91.58 L39.603,92.539 L38.408,102.382 L30.52,101.423 L31.718,91.58" id="Fill-10" fill="#B81515" sketch:type="MSShapeGroup" mask="url(#mask-2)"></path>
                <path d="M48.825,127.202 L14.463,123.028 C13.336,122.892 12.53,121.868 12.667,120.738 C12.803,119.609 13.83,118.806 14.959,118.945 L49.322,123.119 C50.451,123.255 51.254,124.279 51.115,125.409 C50.978,126.538 49.951,127.338 48.825,127.202 L48.825,127.202 Z M11.004,134.438 C11.139,133.308 12.167,132.508 13.297,132.644 L39.005,135.768 C40.134,135.905 40.936,136.929 40.798,138.058 C40.662,139.188 39.635,139.988 38.508,139.852 L12.797,136.727 C11.671,136.591 10.867,135.567 11.004,134.438 L11.004,134.438 Z M42.613,154.254 L11.135,150.43 C10.005,150.294 9.202,149.269 9.338,148.14 C9.477,147.01 10.502,146.208 11.631,146.346 L43.107,150.169 C44.237,150.305 45.043,151.33 44.903,152.459 C44.764,153.588 43.74,154.391 42.613,154.254 L42.613,154.254 Z M38.062,167.605 L9.471,164.129 C8.342,163.994 7.536,162.969 7.673,161.839 C7.811,160.711 8.836,159.91 9.965,160.046 L38.558,163.519 C39.688,163.659 40.491,164.68 40.355,165.809 C40.219,166.939 39.191,167.742 38.062,167.605 L38.062,167.605 Z M55.13,107.541 L13.05,102.43 C10.93,102.172 9.001,103.682 8.745,105.801 L0.028,177.556 C-0.227,179.673 1.282,181.6 3.399,181.858 L45.479,186.971 C47.602,187.227 49.526,185.717 49.784,183.6 L58.501,111.845 C58.76,109.726 57.25,107.799 55.13,107.541 L55.13,107.541 Z" id="Fill-11" fill="#B81515" sketch:type="MSShapeGroup" mask="url(#mask-2)"></path>
            </g>
        </g>
    </g>
</svg>